<?xml version="1.0" encoding="UTF-8" standalone="no"?>
<!-- Created with Inkscape (http://www.inkscape.org/) -->

<svg
   xmlns:dc="http://purl.org/dc/elements/1.1/"
   xmlns:cc="http://creativecommons.org/ns#"
   xmlns:rdf="http://www.w3.org/1999/02/22-rdf-syntax-ns#"
   xmlns:svg="http://www.w3.org/2000/svg"
   xmlns="http://www.w3.org/2000/svg"
   xmlns:sodipodi="http://sodipodi.sourceforge.net/DTD/sodipodi-0.dtd"
   xmlns:inkscape="http://www.inkscape.org/namespaces/inkscape"
   width="210mm"
   height="297mm"
   viewBox="0 0 210 297"
   version="1.1"
   id="svg8"
   inkscape:version="0.92.4 (5da689c313, 2019-01-14)"
   sodipodi:docname="drawing.svg">
  <defs
     id="defs2" />
  <sodipodi:namedview
     id="base"
     pagecolor="#ffffff"
     bordercolor="#666666"
     borderopacity="1.0"
     inkscape:pageopacity="0.0"
     inkscape:pageshadow="2"
     inkscape:zoom="1.1894531"
     inkscape:cx="294.06897"
     inkscape:cy="560"
     inkscape:document-units="mm"
     inkscape:current-layer="layer1"
     showgrid="false"
     inkscape:window-width="1920"
     inkscape:window-height="1017"
     inkscape:window-x="1912"
     inkscape:window-y="-8"
     inkscape:window-maximized="1" />
  <metadata
     id="metadata5">
    <rdf:RDF>
      <cc:Work
         rdf:about="">
        <dc:format>image/svg+xml</dc:format>
        <dc:type
           rdf:resource="http://purl.org/dc/dcmitype/StillImage" />
        <dc:title></dc:title>
      </cc:Work>
    </rdf:RDF>
  </metadata>
  <g
     inkscape:label="Layer 1"
     inkscape:groupmode="layer"
     id="layer1">
    <path
       style="fill:none;stroke:#000000;stroke-width:0.26458332px;stroke-linecap:butt;stroke-linejoin:miter;stroke-opacity:1"
       d="m 0,0 c 600,100 c 600,100 c 606.5554913548516,110.49479987895151 c 607.8863808443554,121.4599354217741 c 602.4606235790926,131.08109036305802 c 592.3879532511287,138.26834323650897 c 581.9560013699022,143.80639539021104 c 574.8322651072291,150.0013209717642 c 571.8350360012649,158.95349048465135 c 570.7106781186548,170.71067811865476 c 567.9251663480777,182.7670546712825 c 561.1127256321563,191.46165735327997 c 550.4729519749885,194.42825149976886 c 538.2683432365089,192.3879532511287 c 526.9758450878345,188.92744356734914 c 517.5581289814515,188.27067523629074 c 509.10862818696063,192.48145397958774 c 500,200 c 489.50520012104846,206.5554913548516 c 478.5400645782259,207.88638084435536 c 468.918909636942,202.46062357909267 c 461.731656763491,192.3879532511287 c 456.19360460978896,181.95600136990214 c 449.9986790282358,174.8322651072291 c 441.04650951534865,171.8350360012649 c 429.28932188134524,170.71067811865476 c 417.2329453287175,167.9251663480777 c 408.53834264672,161.11272563215624 c 405.57174850023114,150.47295197498852 c 407.6120467488713,138.268343236509 c 411.0725564326509,126.97584508783444 c 411.72932476370926,117.55812898145157 c 407.51854602041226,109.10862818696063 c 400,100.00000000000001 c 393.4445086451484,89.50520012104849 c 392.11361915564464,78.54006457822588 c 397.53937642090733,68.918909636942 c 407.6120467488713,61.731656763491024 c 418.04399863009786,56.19360460978897 c 425.1677348927709,49.99867902823583 c 428.16496399873506,41.04650951534866 c 429.28932188134524,29.28932188134526 c 432.07483365192223,17.232945328717577 c 438.88727436784376,8.538342646720025 c 449.5270480250115,5.571748500231138 c 461.73165676349095,7.6120467488713075 c 473.02415491216556,11.072556432650885 c 482.4418710185484,11.729324763709272 c 490.8913718130394,7.518546020412202 c 500,1.4210854715202004e-14 c 510.4947998789515,-6.555491354851583 c 521.4599354217742,-7.886380844355344 c 531.081090363058,-2.460623579092669 c 538.268343236509,7.61204674887135 c 543.806395390211,18.043998630097846 c 550.0013209717641,25.16773489277091 c 558.9534904846514,28.164963998735104 c 570.7106781186548,29.289321881345245 c 582.7670546712824,32.07483365192223 c 591.46165735328,38.88727436784376 c 594.4282514997689,49.52704802501147 c 592.3879532511287,61.73165676349094 c 588.9274435673491,73.02415491216554 c 588.2706752362907,82.44187101854841 c 592.4814539795877,90.8913718130394"
       id="path42"
       inkscape:connector-curvature="0"
       sodipodi:nodetypes="aaaaaaa" />
  </g>
</svg>
